<svg id="Color" enable-background="new 0 0 24 24" height="512" viewBox="0 0 24 24" width="512" xmlns="http://www.w3.org/2000/svg"><path d="m1.75 15h7.5c.965 0 1.75-.785 1.75-1.75v-3.5c0-.965-.785-1.75-1.75-1.75h-7.5c-.965 0-1.75.785-1.75 1.75v3.5c0 .965.785 1.75 1.75 1.75z" fill="#cfd8dc"/><path d="m1.75 24h7.5c.965 0 1.75-.785 1.75-1.75v-3.5c0-.965-.785-1.75-1.75-1.75h-7.5c-.965 0-1.75.785-1.75 1.75v3.5c0 .965.785 1.75 1.75 1.75z" fill="#90a4ae"/><path d="m22.25 8h-7.5c-.965 0-1.75.785-1.75 1.75v3.5c0 .965.785 1.75 1.75 1.75h7.5c.965 0 1.75-.785 1.75-1.75v-3.5c0-.965-.785-1.75-1.75-1.75z" fill="#90a4ae"/><path d="m22.25 17h-7.5c-.965 0-1.75.785-1.75 1.75v3.5c0 .965.785 1.75 1.75 1.75h7.5c.965 0 1.75-.785 1.75-1.75v-3.5c0-.965-.785-1.75-1.75-1.75z" fill="#cfd8dc"/><path d="m22.25 0h-20.5c-.965 0-1.75.785-1.75 1.75v2.5c0 .965.785 1.75 1.75 1.75h20.5c.965 0 1.75-.785 1.75-1.75v-2.5c0-.965-.785-1.75-1.75-1.75z" fill="#03a9f4"/><path d="m12 0h-10.25c-.965 0-1.75.785-1.75 1.75v2.5c0 .965.785 1.75 1.75 1.75h10.25z" fill="#0393d4"/><path d="m5.5 8h-3.75c-.965 0-1.75.785-1.75 1.75v3.5c0 .965.785 1.75 1.75 1.75h3.75z" fill="#b4bcc0"/><path d="m5.5 17h-3.75c-.965 0-1.75.785-1.75 1.75v3.5c0 .965.785 1.75 1.75 1.75h3.75z" fill="#7d8f97"/><path d="m18.5 8h-3.75c-.965 0-1.75.785-1.75 1.75v3.5c0 .965.785 1.75 1.75 1.75h3.75z" fill="#7d8f97"/><path d="m18.5 17h-3.75c-.965 0-1.75.785-1.75 1.75v3.5c0 .965.785 1.75 1.75 1.75h3.75z" fill="#b4bcc0"/></svg>